<svg xmlns="http://www.w3.org/2000/svg" xmlns:xlink="http://www.w3.org/1999/xlink" width="24" height="24" viewBox="0 0 24 24">
    <defs>
        <path id="prefix__c" d="M0.087 0.015L2.089 0.015 2.089 2.023 0.087 2.023z"/>
        <path id="prefix__e" d="M0.055 0.015L2.056 0.015 2.056 2.023 0.055 2.023z"/>
        <path id="prefix__g" d="M0.023 0.015L2.024 0.015 2.024 2.023 0.023 2.023z"/>
        <path id="prefix__i" d="M0.11 0.015L2.112 0.015 2.112 2.023 0.11 2.023z"/>
        <path id="prefix__j" d="M0.078 0.015L2.08 0.015 2.08 2.023 0.078 2.023z"/>
        <path id="prefix__l" d="M0.026 0.015L2.027 0.015 2.027 2.023 0.026 2.023z"/>
        <circle id="prefix__a" cx="11.957" cy="11.957" r="11.957"/>
    </defs>
    <g fill="none" fill-rule="evenodd">
        <mask id="prefix__b" fill="#fff">
            <use xlink:href="#prefix__a"/>
        </mask>
        <use fill="#FFF" xlink:href="#prefix__a"/>
        <g mask="url(#prefix__b)">
            <g>
                <path fill="#8EEDBE" d="M8.863 33.284c-.002.555-.452 1.003-1.005 1-.552-.001-.999-.452-.997-1.007.002-.555.453-1.002 1.005-1 .552.002.999.453.997 1.007M13.437 33.284c-.002.555-.451 1.003-1.004 1-.553-.001-.999-.452-.997-1.007.002-.555.452-1.002 1.004-1 .553.002 1 .453.997 1.007M18.012 33.284c-.002.555-.452 1.003-1.005 1-.552-.001-.999-.452-.997-1.007.002-.555.452-1.002 1.005-1 .552.002.999.453.997 1.007M22.586 33.284c-.002.555-.451 1.003-1.004 1-.553-.001-1-.452-.997-1.007.002-.555.452-1.002 1.004-1 .553.002.999.453.997 1.007M27.16 33.284c-.001.555-.451 1.003-1.004 1-.552-.001-.999-.452-.997-1.007.002-.555.452-1.002 1.005-1 .552.002.999.453.997 1.007M6.576 37.875c-.002.554-.452 1.003-1.005 1-.552-.001-.999-.453-.997-1.007.003-.555.452-1.003 1.005-1 .552.001.999.453.997 1.007M11.15 37.875c-.002.554-.451 1.003-1.004 1-.553-.001-1-.453-.997-1.007.002-.555.452-1.003 1.004-1 .553.001 1 .453.997 1.007M15.725 37.875c-.002.554-.452 1.003-1.005 1-.552-.001-1-.453-.997-1.007.002-.555.452-1.003 1.004-1 .553.001 1 .453.998 1.007M20.299 37.875c-.002.554-.451 1.003-1.004 1-.553-.001-1-.453-.998-1.007.002-.555.453-1.003 1.005-1 .552.001 1 .453.997 1.007M24.873 37.875c-.002.554-.451 1.003-1.004 1-.553-.001-1-.453-.997-1.007.002-.555.452-1.003 1.004-1 .553.001 1 .453.997 1.007M29.448 37.875c-.002.554-.452 1.003-1.005 1-.552-.001-.999-.453-.997-1.007.002-.555.453-1.003 1.005-1 .552.001.999.453.997 1.007M8.863 42.466c-.002.555-.452 1.002-1.005 1-.552-.002-.999-.453-.997-1.007.002-.555.453-1.003 1.005-1.001.552.002.999.453.997 1.008M13.437 42.466c-.002.555-.451 1.002-1.004 1-.553-.002-.999-.453-.997-1.007.002-.555.452-1.003 1.004-1.001.553.002 1 .453.997 1.008M18.012 42.466c-.002.555-.452 1.002-1.005 1-.552-.002-.999-.453-.997-1.007.002-.555.452-1.003 1.005-1.001.552.002.999.453.997 1.008M22.586 42.466c-.002.555-.451 1.002-1.004 1-.553-.002-1-.453-.997-1.007.002-.555.452-1.003 1.004-1.001.553.002.999.453.997 1.008M27.16 42.466c-.001.555-.451 1.002-1.004 1-.552-.002-.999-.453-.997-1.007.002-.555.452-1.003 1.005-1.001.552.002.999.453.997 1.008M6.576 47.056c-.002.555-.452 1.003-1.005 1.001-.552-.002-.999-.453-.997-1.008.003-.555.452-1.002 1.005-1 .552.002.999.453.997 1.007M11.15 47.056c-.002.555-.451 1.003-1.004 1.001-.553-.002-1-.453-.997-1.008.002-.555.452-1.002 1.004-1 .553.002 1 .453.997 1.007M15.725 47.056c-.002.555-.452 1.003-1.005 1.001-.552-.002-1-.453-.997-1.008.002-.555.452-1.002 1.004-1 .553.002 1 .453.998 1.007M20.299 47.056c-.002.555-.451 1.003-1.004 1.001-.553-.002-1-.453-.998-1.008.002-.555.453-1.002 1.005-1 .552.002 1 .453.997 1.007M24.873 47.056c-.002.555-.451 1.003-1.004 1.001-.553-.002-1-.453-.997-1.008.002-.555.452-1.002 1.004-1 .553.002 1 .453.997 1.007M29.448 47.056c-.002.555-.452 1.003-1.005 1.001-.552-.002-.999-.453-.997-1.008.002-.555.453-1.002 1.005-1 .552.002.999.453.997 1.007" transform="translate(-5.08 -31.994)"/>
                <g transform="translate(-5.08 -31.994) translate(4.487 55.215)">
                    <mask id="prefix__d" fill="#fff">
                        <use xlink:href="#prefix__c"/>
                    </mask>
                    <path fill="#8EEDBE" d="M2.089 1.023c-.002.555-.452 1.002-1.005 1C.532 2.021.085 1.57.087 1.016.089.46.539.013 1.092.016c.552.001.999.452.997 1.007" mask="url(#prefix__d)"/>
                </g>
                <g transform="translate(-5.08 -31.994) translate(9.094 55.215)">
                    <mask id="prefix__f" fill="#fff">
                        <use xlink:href="#prefix__e"/>
                    </mask>
                    <path fill="#8EEDBE" d="M2.056 1.023c-.002.555-.45 1.002-1.004 1C.5 2.021.053 1.57.055 1.016.057.46.507.013 1.06.016c.552.001.999.452.996 1.007" mask="url(#prefix__f)"/>
                </g>
                <g transform="translate(-5.08 -31.994) translate(13.7 55.215)">
                    <mask id="prefix__h" fill="#fff">
                        <use xlink:href="#prefix__g"/>
                    </mask>
                    <path fill="#8EEDBE" d="M2.024 1.023c-.002.555-.451 1.002-1.004 1-.553-.002-1-.453-.997-1.007C.025.46.475.013 1.027.016c.553.001 1 .452.997 1.007" mask="url(#prefix__h)"/>
                </g>
                <g transform="translate(-5.08 -31.994) translate(18.187 55.215)"/>
                <g transform="translate(-5.08 -31.994) translate(22.794 55.215)">
                    <mask id="prefix__k" fill="#fff">
                        <use xlink:href="#prefix__j"/>
                    </mask>
                    <path fill="#8EEDBE" d="M2.08 1.023c-.002.555-.452 1.002-1.005 1-.552-.002-1-.453-.997-1.007C.08.46.53.013 1.082.016c.553.001 1 .452.998 1.007" mask="url(#prefix__k)"/>
                </g>
                <g transform="translate(-5.08 -31.994) translate(27.42 55.215)">
                    <mask id="prefix__m" fill="#fff">
                        <use xlink:href="#prefix__l"/>
                    </mask>
                    <path fill="#8EEDBE" d="M2.027 1.023c-.002.555-.451 1.002-1.004 1-.553-.002-1-.453-.997-1.007C.028.46.478.013 1.03.016c.553.001 1 .452.997 1.007" mask="url(#prefix__m)"/>
                </g>
                <path fill="#8EEDBE" d="M8.863 51.647c-.002.555-.452 1.003-1.005 1-.552-.001-.999-.453-.997-1.007.002-.555.453-1.003 1.005-1 .552.001.999.453.997 1.007M13.437 51.647c-.002.555-.451 1.003-1.004 1-.553-.001-.999-.453-.997-1.007.002-.555.452-1.003 1.004-1 .553.001 1 .453.997 1.007M18.012 51.647c-.002.555-.452 1.003-1.005 1-.552-.001-.999-.453-.997-1.007.002-.555.452-1.003 1.005-1 .552.001.999.453.997 1.007M22.586 51.647c-.002.555-.451 1.003-1.004 1-.553-.001-1-.453-.997-1.007.002-.555.452-1.003 1.004-1 .553.001.999.453.997 1.007M27.16 51.647c-.001.555-.451 1.003-1.004 1-.552-.001-.999-.453-.997-1.007.002-.555.452-1.003 1.005-1 .552.001.999.453.997 1.007" transform="translate(-5.08 -31.994)"/>
            </g>
        </g>
        <g mask="url(#prefix__b)">
            <g>
                <path fill="#8EEDBE" d="M23.159 0l-2.086 9.766c-.666 2.34-3.212 4.06-6.398 3.96l-.069-.001c-4.202-.31-4.246-2.424-3.859-5.212L12.55 0h10.61z" transform="translate(-7.146 12.58)"/>
                <path fill="#142CD2" d="M12.633 0l-2.086 9.766c-.666 2.34-3.212 4.06-6.398 3.96l-.069-.001C-.122 13.415-.166 11.3.222 8.513L2.024 0h10.609z" transform="translate(-7.146 12.58)"/>
            </g>
        </g>
    </g>
</svg>
