<svg xmlns="http://www.w3.org/2000/svg" xmlns:xlink="http://www.w3.org/1999/xlink" width="24" height="24" viewBox="0 0 24 24">
    <defs>
        <circle id="prefix__a" cx="12" cy="12" r="12"/>
    </defs>
    <g fill="none" fill-rule="evenodd">
        <mask id="prefix__b" fill="#fff">
            <use xlink:href="#prefix__a"/>
        </mask>
        <use fill="#FFF0E4" xlink:href="#prefix__a"/>
        <g mask="url(#prefix__b)">
            <g>
                <path fill="#FFDCCC" d="M25.146 5.887L18.938.373 18.934.37C18.641.116 18.275 0 17.917 0c-.36 0-.724.116-1.018.37l-.005.004-4.244 3.803L8.406.374 8.4.37C8.107.116 7.74 0 7.383 0S6.66.116 6.366.37l-.003.003L.155 5.857c-.11.097-.162.243-.148.387-.012.068-.01.14.013.211.859 2.754 2.538 5.126 4.742 6.81 2.203 1.685 4.933 2.682 7.885 2.681 2.745 0 5.3-.862 7.416-2.338 2.116-1.477 3.797-3.566 4.804-6.023.146-.354.276-.716.393-1.084.016-.052.021-.105.02-.157.042-.165-.006-.344-.134-.457" transform="translate(-7.642 7.09)"/>
                <path stroke="#FF7F6E" stroke-width="4" d="M18.414 9.821c0-4.068 3.298-7.366 7.366-7.366s7.366 3.298 7.366 7.366" transform="translate(-7.642 7.09)"/>
            </g>
        </g>
    </g>
</svg>
