<svg xmlns="http://www.w3.org/2000/svg" width="306" height="253" viewBox="0 0 306 253">
    <g fill="none" fill-rule="evenodd">
        <path fill="#FFF" d="M148.537 227.205H52.228c-1.143 0-2.08-.936-2.08-2.08V63.145c0-1.145.937-2.081 2.08-2.081h96.31c1.144 0 2.08.936 2.08 2.08v161.98c0 1.145-.936 2.081-2.08 2.081M13.99 228.648H62.518V233.894H13.99z" transform="translate(1 1)"/>
        <path stroke="#00315E" stroke-linecap="round" stroke-linejoin="round" stroke-width="1.3" d="M148.537 227.205H52.228c-1.143 0-2.08-.936-2.08-2.08V63.145c0-1.145.937-2.081 2.08-2.081h96.31c1.144 0 2.08.936 2.08 2.08v161.98c0 1.145-.936 2.081-2.08 2.081z" transform="translate(1 1)"/>
        <path fill="#FFF" stroke="#00315E" stroke-linecap="round" stroke-linejoin="round" stroke-width="1.3" d="M145.377 227.354c-1.717 0-23.504 0-45.303-.016-21.8.015-43.587.016-45.304.016.522.54 2.57 2.818 2.682 5.345.083.248.131.402.131.402h84.98l.13-.402c.113-2.527 2.161-4.805 2.684-5.345zM96.096 61.05H55.997c-2.647 0-4.813-2.166-4.813-4.813v-40.08c0-2.646 2.166-4.812 4.813-4.812h40.1c2.647 0 4.812 2.166 4.812 4.813v40.079c0 2.647-2.165 4.812-4.813 4.812z" transform="translate(1 1)"/>
        <path stroke="#00315E" stroke-linecap="round" stroke-linejoin="round" stroke-width="1.3" d="M51.281 16.556L150.47 16.556M51.889 55.862L150.124 55.862" transform="translate(1 1)"/>
        <path fill="#142CD2" fill-opacity=".75" stroke="#00315E" stroke-linecap="round" stroke-linejoin="round" stroke-width="1.3" d="M145.822 61.043h-40.1c-2.647 0-4.813-2.165-4.813-4.813V16.152c0-2.647 2.166-4.813 4.812-4.813h40.1c2.648 0 4.813 2.166 4.813 4.813V56.23c0 2.648-2.165 4.813-4.812 4.813z" transform="translate(1 1)"/>
        <path stroke="#00315E" stroke-linecap="round" stroke-linejoin="round" stroke-width="1.3" d="M55.542 55.862L55.542 16.839M61.999 55.862L61.999 16.839M53.397 55.862L53.397 16.839M59.855 55.862L59.855 16.839M57.687 55.862L57.687 16.839M64.157 55.862L64.157 16.839M70.614 55.862L70.614 16.839M68.47 55.862L68.47 16.839M66.302 55.862L66.302 16.839M72.772 55.862L72.772 16.839M79.23 55.862L79.23 16.839M77.085 55.862L77.085 16.839M74.917 55.862L74.917 16.839M81.387 55.862L81.387 16.839M87.845 55.862L87.845 16.839M85.7 55.862L85.7 16.839M83.532 55.862L83.532 16.839M90.11 55.862L90.11 16.839M92.267 55.862L92.267 16.839M98.725 55.862L98.725 16.839M96.58 55.862L96.58 16.839M94.412 55.862L94.412 16.839" transform="translate(1 1)"/>
        <path fill="#FFF" d="M150.632 133.79s-.82 3.918-.705 7.674c0 0-.209 25.785-.07 30.3 0 0-.009 6.406.752 8.895 0 0-.107-2.464 2.382-4.262 0 0 1.083-3.134 1.337-3.802 0 0 1.243-2.88 1.498-4.932 0 0 .045-1.13.069-2.05V147.73s-.093-2.142-1.084-4.7c0 0-1.59-3.641-1.866-5.023 0 0-2.074-1.223-2.313-4.218" transform="translate(1 1)"/>
        <path stroke="#00315E" stroke-linecap="round" stroke-linejoin="round" stroke-width="1.3" d="M150.632 133.79s-.82 3.918-.705 7.674c0 0-.209 25.785-.07 30.3 0 0-.009 6.406.752 8.895 0 0-.107-2.464 2.382-4.262 0 0 1.083-3.134 1.337-3.802 0 0 1.243-2.88 1.498-4.932 0 0 .045-1.13.069-2.05V147.73s-.093-2.142-1.084-4.7c0 0-1.59-3.641-1.866-5.023 0 0-2.074-1.223-2.313-4.218z" transform="translate(1 1)"/>
        <path fill="#FFF" stroke="#00315E" stroke-linecap="round" stroke-linejoin="round" stroke-width="1.3" d="M170.573 100.578v86.19c0 2.34-1.915 4.255-4.256 4.255h-8.633c-2.34 0-4.255-1.915-4.255-4.256v-86.19s17.174-.03 17.144 0z" transform="translate(1 1)"/>
        <path fill="#FFDCCC" stroke="#00315E" stroke-linecap="round" stroke-linejoin="round" stroke-width="1.3" d="M153.433 100.541L170.589 100.541 170.589 88.958 153.433 88.958z" transform="translate(1 1)"/>
        <path fill="#FFF" stroke="#00315E" stroke-linecap="round" stroke-linejoin="round" stroke-width="1.3" d="M153.434 88.958s-.312-14.31.364-16.246c0 0 .768-1.875 1.29-3.196.522-1.32 1.904-8.203 1.628-10.354 0 0-.307-4.056-.798-5.622 0 0-.2-.891-.17-2.382V7.302s-.352-6.023 1.43-6.975l6.758 2.949s3.441 1.045 3.995 4.61l2.058 10.323s.811 4.62 1.219 9.697c0 0 1.762 20.749 1.946 22.469 0 0 .583 4.978.491 5.47 0 0-.568.322-2.15.352-1.583.03-2.55 1.245-3.35 2.75 0 0-1.106 2.704-.184 6.084 0 0 .615 3.563 1.076 4.67 0 0 .932 2.15 1.116 3.287 0 0 .492 5.53.43 7.128v8.842h-17.15z" transform="translate(1 1)"/>
        <path stroke="#00315E" stroke-linecap="round" stroke-linejoin="round" stroke-width="1.3" d="M155.918 53.54s1.828.399 5.13-.646c0 0 5.962-1.536 10.446 3.303M170.542 106.661s-1.106 3.135-1.044 6.207c0 0-.158 3.395 1.04 6.283" transform="translate(1 1)"/>
        <path fill="#FFF" stroke="#00315E" stroke-linecap="round" stroke-linejoin="round" stroke-width="1.3" d="M13.636 231.607c-1.66-1.152-1.475-3.221-1.475-3.221l-2.535.572-2.5-.48s.15 1.977-1.509 3.129l-5.29 2.764h18.598l-5.289-2.764z" transform="translate(1 1)"/>
        <path fill="#FFF" d="M12.645 226.865c0 1.667-1.351 3.018-3.02 3.018-1.666 0-3.017-1.35-3.017-3.018 0-1.668 1.351-3.02 3.018-3.02 1.668 0 3.019 1.352 3.019 3.02" transform="translate(1 1)"/>
        <path stroke="#00315E" stroke-linecap="round" stroke-linejoin="round" stroke-width="1.3" d="M12.645 226.865c0 1.667-1.351 3.018-3.02 3.018-1.666 0-3.017-1.35-3.017-3.018 0-1.668 1.351-3.02 3.018-3.02 1.668 0 3.019 1.352 3.019 3.02zM12.161 228.827L56.023 228.827M18.378 234.352L100.062 234.352" transform="translate(1 1)"/>
        <path fill="#FFF" d="M165.268 194.014l.051-2.893h-6.994c-.126 1.404-.247 2.989-.355 3.638 0 0-1.828 14.745-6.12 21.956 0 0-7.348 13.504-25.115 19.918 0 0-15.227 6.472-35.441 7.066 0 0-38.288 3.087-59.473-26.65-1.81-3.142-12.4-15.863-13.505-46.57 0 0-3-41.458 31.878-74.925l-.098-10.136c-22.386 18.815-39.532 45.602-39.66 80.496-.082 23.132 5.459 36.964 5.459 36.964 6.745 18.273 16.666 26.826 16.666 26.826 23.642 24.769 67.373 20.528 67.373 20.528 22.022-1.67 38.702-8.17 53.103-22.965 0 0 12.282-10.853 12.231-33.253" transform="translate(1 1)"/>
        <path stroke="#00315E" stroke-linecap="round" stroke-linejoin="round" stroke-width="1.3" d="M165.268 194.014l.051-2.893h-6.994c-.126 1.404-.247 2.989-.355 3.638 0 0-1.828 14.745-6.12 21.956 0 0-7.348 13.504-25.115 19.918 0 0-15.227 6.472-35.441 7.066 0 0-38.288 3.087-59.473-26.65-1.81-3.142-12.4-15.863-13.505-46.57 0 0-3-41.458 31.878-74.925l-.098-10.136c-22.386 18.815-39.532 45.602-39.66 80.496-.082 23.132 5.459 36.964 5.459 36.964 6.745 18.273 16.666 26.826 16.666 26.826 23.642 24.769 67.373 20.528 67.373 20.528 22.022-1.67 38.702-8.17 53.103-22.965 0 0 12.282-10.853 12.231-33.253z" transform="translate(1 1)"/>
        <path stroke="#00315E" stroke-linecap="round" stroke-linejoin="round" stroke-width="1.3" d="M101.652 233.439c-.363.553-.896.903-1.489.903-.602 0-1.14-.36-1.504-.928" transform="translate(1 1)"/>
        <path fill="#142CD2" d="M84.526 79.2c0-.65.51-1.208 1.127-1.208.41 0 .825.229.825.84 0 .56-.454 1.174-1.157 1.174-.472 0-.795-.273-.795-.807zm-14.477-3.244l-.786 3.014c-.178.71.264 1.015.75 1.015.47 0 1.058-.286 1.243-1.017l.786-3.012h1.034s-.707 2.695-.792 3.014c-.18.672.289 1.014.692 1.014.636 0 1.138-.382 1.308-1.046l.775-2.982h1.02l-.818 3.123c-.308 1.216-1.413 1.8-2.398 1.8-.565 0-1.08-.2-1.379-.592-.47.396-1.073.592-1.638.592-1.043 0-1.909-.689-1.57-1.993l.76-2.93h1.013zm10.418 0l-.937 3.62c-.077.283.08.451.355.451h1.188c-.102-.07-.079-.294-.043-.431l.944-3.64h.964L82 79.576c-.077.283.083.451.341.451h1.451c-.142-.187-.219-.514-.219-.82 0-1.105.922-2 2.16-2 1.065 0 1.703.747 1.703 1.59 0 .962-.595 1.684-1.593 1.92-.261.062-.645.095-.973.095h-7.673c-.55 0-1.037-.286-1.026-.942.003-.123.02-.253.058-.403l.56-2.172h.964l-.59 2.281c-.074.27.064.451.34.451h1.099c-.103-.07-.08-.294-.044-.431l.944-3.64h.964zm-2.976-.323c.342 0 .631.268.626.595-.007.321-.305.596-.647.596-.335 0-.61-.275-.605-.596.006-.327.291-.595.626-.595z" transform="translate(1 1)"/>
        <g transform="translate(1 1) translate(210 62)">
            <ellipse cx="10.503" cy="7.621" fill="#FFF" rx="9.184" ry="4.898" transform="rotate(-18 10.503 7.621)"/>
            <path fill="#FFF" stroke="#00315E" stroke-linecap="round" stroke-linejoin="round" stroke-width="1.3" d="M19.322 6.607s.011-4.903-7.24-3.963c0 0-4.814.595-9.38 4.176 0 0-1.282 1.1-1.273 2.134"/>
            <path fill="#FFF" stroke="#00315E" stroke-linecap="round" stroke-linejoin="round" stroke-width="1.3" d="M1.426 8.827c-.02 1.059.62 2.84 2.671 3.856 0 0 3.32 1.723 7.876.166 0 0 3.88-1.287 5.983-3.33 0 0 1.186-.853 1.367-2.288v-.62 8.323c-.18 1.434-1.367 2.288-1.367 2.288-2.102 2.042-5.983 3.328-5.983 3.328-4.556 1.558-7.876-.164-7.876-.164C1.28 19.32 1.43 15.993 1.43 15.993l-.004-7.166"/>
            <path fill="#142CD2" d="M13.556 14.654l-.414 1.612c-.143.628-.518 1.092-.839 1.277l-.045.027-.191.051-.175-.11c-.16.26-.355.471-.524.574l-.122.06-.135.02h-.02c-.125-.007-.209-.114-.212-.335l.053-.38.372-1.514.32-.175-.373 1.543c-.077.27-.018.374.074.379l.087-.027.027-.018c.152-.083.344-.324.438-.693l.392-1.553.322-.184s-.342 1.384-.391 1.552c-.059.26.007.365.09.37l.079-.018.01-.01c.205-.119.382-.382.465-.72l.373-1.524.34-.204zm3.458-.986c.197.012.287.214.257.525-.036.465-.277.909-.622 1.223-.089.078-.224.165-.347.23l-2.588 1.418-.038.02-.12.024h-.015c-.099-.006-.154-.103-.134-.31l.036-.205.29-1.148.333-.18-.315 1.22.04.157.045-.007.02-.01.37-.208.001-.187.499-1.926.316-.192-.482 1.929c-.025.095-.01.156.03.158h.01l.045-.009.02-.009.397-.206.012-.209.481-1.937.333-.17-.49 1.918c-.027.104-.01.167.028.168h.011l.056-.018.495-.274c-.04-.054-.054-.201-.04-.345.051-.538.406-1.132.824-1.369l.039-.018zm-2.883.82c.072.004.119.081.108.194-.015.155-.131.347-.255.402l-.018.008-.057.018c-.062-.003-.109-.078-.09-.19.015-.156.113-.326.219-.405h.002l.025-.009zm2.699-.392l-.103.036-.02.009c-.209.113-.405.467-.435.787-.018.185.028.271.108.276l.093-.026.028-.01c.238-.132.428-.515.455-.796.02-.196-.046-.272-.126-.276z"/>
            <g transform="translate(0 26.49)">
                <ellipse cx="10.503" cy="7.621" fill="#FFF" rx="9.184" ry="4.898" transform="rotate(-18 10.503 7.621)"/>
                <path fill="#FFF" stroke="#00315E" stroke-linecap="round" stroke-linejoin="round" stroke-width="1.3" d="M19.322 6.607s.011-4.903-7.24-3.963c0 0-4.814.595-9.38 4.176 0 0-1.282 1.1-1.273 2.134"/>
                <path fill="#FFF" stroke="#00315E" stroke-linecap="round" stroke-linejoin="round" stroke-width="1.3" d="M1.426 8.827c-.02 1.059.62 2.84 2.671 3.856 0 0 3.32 1.723 7.876.166 0 0 3.88-1.287 5.983-3.33 0 0 1.186-.853 1.367-2.288v-.62 8.323c-.18 1.434-1.367 2.288-1.367 2.288-2.102 2.042-5.983 3.328-5.983 3.328-4.556 1.558-7.876-.164-7.876-.164C1.28 19.32 1.43 15.993 1.43 15.993l-.004-7.166"/>
                <path fill="#142CD2" d="M13.556 14.654l-.414 1.612c-.143.628-.518 1.092-.839 1.277l-.045.027-.191.051-.175-.11c-.16.26-.355.471-.524.574l-.122.06-.135.02h-.02c-.125-.007-.209-.114-.212-.335l.053-.38.372-1.514.32-.175-.373 1.543c-.077.27-.018.374.074.379l.087-.027.027-.018c.152-.083.344-.324.438-.693l.392-1.553.322-.184s-.342 1.384-.391 1.552c-.059.26.007.365.09.37l.079-.018.01-.01c.205-.119.382-.382.465-.72l.373-1.524.34-.204zm3.458-.986c.197.012.287.214.257.525-.036.465-.277.909-.622 1.223-.089.078-.224.165-.347.23l-2.588 1.418-.038.02-.12.024h-.015c-.099-.006-.154-.103-.134-.31l.036-.205.29-1.148.333-.18-.315 1.22.04.157.045-.007.02-.01.37-.208.001-.187.499-1.926.316-.192-.482 1.929c-.025.095-.01.156.03.158h.01l.045-.009.02-.009.397-.206.012-.209.481-1.937.333-.17-.49 1.918c-.027.104-.01.167.028.168h.011l.056-.018.495-.274c-.04-.054-.054-.201-.04-.345.051-.538.406-1.132.824-1.369l.039-.018zm-2.883.82c.072.004.119.081.108.194-.015.155-.131.347-.255.402l-.018.008-.057.018c-.062-.003-.109-.078-.09-.19.015-.156.113-.326.219-.405h.002l.025-.009zm2.699-.392l-.103.036-.02.009c-.209.113-.405.467-.435.787-.018.185.028.271.108.276l.093-.026.028-.01c.238-.132.428-.515.455-.796.02-.196-.046-.272-.126-.276z"/>
            </g>
            <g transform="translate(0 52.98)">
                <ellipse cx="10.503" cy="7.621" fill="#FFF" rx="9.184" ry="4.898" transform="rotate(-18 10.503 7.621)"/>
                <path fill="#FFF" stroke="#00315E" stroke-linecap="round" stroke-linejoin="round" stroke-width="1.3" d="M19.322 6.607s.011-4.903-7.24-3.963c0 0-4.814.595-9.38 4.176 0 0-1.282 1.1-1.273 2.134"/>
                <path fill="#FFF" stroke="#00315E" stroke-linecap="round" stroke-linejoin="round" stroke-width="1.3" d="M1.426 8.827c-.02 1.059.62 2.84 2.671 3.856 0 0 3.32 1.723 7.876.166 0 0 3.88-1.287 5.983-3.33 0 0 1.186-.853 1.367-2.288v-.62 8.323c-.18 1.434-1.367 2.288-1.367 2.288-2.102 2.042-5.983 3.328-5.983 3.328-4.556 1.558-7.876-.164-7.876-.164C1.28 19.32 1.43 15.993 1.43 15.993l-.004-7.166"/>
                <path fill="#142CD2" d="M13.556 14.654l-.414 1.612c-.143.628-.518 1.092-.839 1.277l-.045.027-.191.051-.175-.11c-.16.26-.355.471-.524.574l-.122.06-.135.02h-.02c-.125-.007-.209-.114-.212-.335l.053-.38.372-1.514.32-.175-.373 1.543c-.077.27-.018.374.074.379l.087-.027.027-.018c.152-.083.344-.324.438-.693l.392-1.553.322-.184s-.342 1.384-.391 1.552c-.059.26.007.365.09.37l.079-.018.01-.01c.205-.119.382-.382.465-.72l.373-1.524.34-.204zm3.458-.986c.197.012.287.214.257.525-.036.465-.277.909-.622 1.223-.089.078-.224.165-.347.23l-2.588 1.418-.038.02-.12.024h-.015c-.099-.006-.154-.103-.134-.31l.036-.205.29-1.148.333-.18-.315 1.22.04.157.045-.007.02-.01.37-.208.001-.187.499-1.926.316-.192-.482 1.929c-.025.095-.01.156.03.158h.01l.045-.009.02-.009.397-.206.012-.209.481-1.937.333-.17-.49 1.918c-.027.104-.01.167.028.168h.011l.056-.018.495-.274c-.04-.054-.054-.201-.04-.345.051-.538.406-1.132.824-1.369l.039-.018zm-2.883.82c.072.004.119.081.108.194-.015.155-.131.347-.255.402l-.018.008-.057.018c-.062-.003-.109-.078-.09-.19.015-.156.113-.326.219-.405h.002l.025-.009zm2.699-.392l-.103.036-.02.009c-.209.113-.405.467-.435.787-.018.185.028.271.108.276l.093-.026.028-.01c.238-.132.428-.515.455-.796.02-.196-.046-.272-.126-.276z"/>
            </g>
            <g transform="translate(0 79.47)">
                <ellipse cx="10.503" cy="7.621" fill="#FFF" rx="9.184" ry="4.898" transform="rotate(-18 10.503 7.621)"/>
                <path fill="#FFF" stroke="#00315E" stroke-linecap="round" stroke-linejoin="round" stroke-width="1.3" d="M19.322 6.607s.011-4.903-7.24-3.963c0 0-4.814.595-9.38 4.176 0 0-1.282 1.1-1.273 2.134"/>
                <path fill="#FFF" stroke="#00315E" stroke-linecap="round" stroke-linejoin="round" stroke-width="1.3" d="M1.426 8.827c-.02 1.059.62 2.84 2.671 3.856 0 0 3.32 1.723 7.876.166 0 0 3.88-1.287 5.983-3.33 0 0 1.186-.853 1.367-2.288v-.62 8.323c-.18 1.434-1.367 2.288-1.367 2.288-2.102 2.042-5.983 3.328-5.983 3.328-4.556 1.558-7.876-.164-7.876-.164C1.28 19.32 1.43 15.993 1.43 15.993l-.004-7.166"/>
                <path fill="#142CD2" d="M13.556 14.654l-.414 1.612c-.143.628-.518 1.092-.839 1.277l-.045.027-.191.051-.175-.11c-.16.26-.355.471-.524.574l-.122.06-.135.02h-.02c-.125-.007-.209-.114-.212-.335l.053-.38.372-1.514.32-.175-.373 1.543c-.077.27-.018.374.074.379l.087-.027.027-.018c.152-.083.344-.324.438-.693l.392-1.553.322-.184s-.342 1.384-.391 1.552c-.059.26.007.365.09.37l.079-.018.01-.01c.205-.119.382-.382.465-.72l.373-1.524.34-.204zm3.458-.986c.197.012.287.214.257.525-.036.465-.277.909-.622 1.223-.089.078-.224.165-.347.23l-2.588 1.418-.038.02-.12.024h-.015c-.099-.006-.154-.103-.134-.31l.036-.205.29-1.148.333-.18-.315 1.22.04.157.045-.007.02-.01.37-.208.001-.187.499-1.926.316-.192-.482 1.929c-.025.095-.01.156.03.158h.01l.045-.009.02-.009.397-.206.012-.209.481-1.937.333-.17-.49 1.918c-.027.104-.01.167.028.168h.011l.056-.018.495-.274c-.04-.054-.054-.201-.04-.345.051-.538.406-1.132.824-1.369l.039-.018zm-2.883.82c.072.004.119.081.108.194-.015.155-.131.347-.255.402l-.018.008-.057.018c-.062-.003-.109-.078-.09-.19.015-.156.113-.326.219-.405h.002l.025-.009zm2.699-.392l-.103.036-.02.009c-.209.113-.405.467-.435.787-.018.185.028.271.108.276l.093-.026.028-.01c.238-.132.428-.515.455-.796.02-.196-.046-.272-.126-.276z"/>
            </g>
            <g transform="translate(0 105.96)">
                <ellipse cx="10.503" cy="7.621" fill="#FFF" rx="9.184" ry="4.898" transform="rotate(-18 10.503 7.621)"/>
                <path fill="#FFF" stroke="#00315E" stroke-linecap="round" stroke-linejoin="round" stroke-width="1.3" d="M19.322 6.607s.011-4.903-7.24-3.963c0 0-4.814.595-9.38 4.176 0 0-1.282 1.1-1.273 2.134"/>
                <path fill="#FFF" stroke="#00315E" stroke-linecap="round" stroke-linejoin="round" stroke-width="1.3" d="M1.426 8.827c-.02 1.059.62 2.84 2.671 3.856 0 0 3.32 1.723 7.876.166 0 0 3.88-1.287 5.983-3.33 0 0 1.186-.853 1.367-2.288v-.62 8.323c-.18 1.434-1.367 2.288-1.367 2.288-2.102 2.042-5.983 3.328-5.983 3.328-4.556 1.558-7.876-.164-7.876-.164C1.28 19.32 1.43 15.993 1.43 15.993l-.004-7.166"/>
                <path fill="#142CD2" d="M13.556 14.654l-.414 1.612c-.143.628-.518 1.092-.839 1.277l-.045.027-.191.051-.175-.11c-.16.26-.355.471-.524.574l-.122.06-.135.02h-.02c-.125-.007-.209-.114-.212-.335l.053-.38.372-1.514.32-.175-.373 1.543c-.077.27-.018.374.074.379l.087-.027.027-.018c.152-.083.344-.324.438-.693l.392-1.553.322-.184s-.342 1.384-.391 1.552c-.059.26.007.365.09.37l.079-.018.01-.01c.205-.119.382-.382.465-.72l.373-1.524.34-.204zm3.458-.986c.197.012.287.214.257.525-.036.465-.277.909-.622 1.223-.089.078-.224.165-.347.23l-2.588 1.418-.038.02-.12.024h-.015c-.099-.006-.154-.103-.134-.31l.036-.205.29-1.148.333-.18-.315 1.22.04.157.045-.007.02-.01.37-.208.001-.187.499-1.926.316-.192-.482 1.929c-.025.095-.01.156.03.158h.01l.045-.009.02-.009.397-.206.012-.209.481-1.937.333-.17-.49 1.918c-.027.104-.01.167.028.168h.011l.056-.018.495-.274c-.04-.054-.054-.201-.04-.345.051-.538.406-1.132.824-1.369l.039-.018zm-2.883.82c.072.004.119.081.108.194-.015.155-.131.347-.255.402l-.018.008-.057.018c-.062-.003-.109-.078-.09-.19.015-.156.113-.326.219-.405h.002l.025-.009zm2.699-.392l-.103.036-.02.009c-.209.113-.405.467-.435.787-.018.185.028.271.108.276l.093-.026.028-.01c.238-.132.428-.515.455-.796.02-.196-.046-.272-.126-.276z"/>
            </g>
        </g>
        <g stroke="#00315E" stroke-linecap="round" stroke-linejoin="round">
            <path fill="#FFF" stroke-width="1.3" d="M7.058 29.286h14.89c.367 0 .668-.3.668-.666V.832c0-.366-.3-.665-.668-.665H7.058v29.119z" transform="translate(1 1) translate(272 150)"/>
            <path stroke-width="1.2" d="M14.857 34.219L14.857 38.619" transform="translate(1 1) translate(272 150)"/>
            <path stroke-width="1.3" d="M9.592 0.204L9.592 29.286" transform="translate(1 1) translate(272 150)"/>
            <path fill="#FFF" stroke-width="1.3" d="M.627 5.244s-1.035 1.094 0 2.468h6.399v-2.5l-6.399.032zM16.329 29.287c-.146.008-.808.006-1.472.002-.663.004-1.326.006-1.47-.002.329-.002.386.659.386.659v4.235h2.17v-4.235s.031-.66.386-.659z" transform="translate(1 1) translate(272 150)"/>
        </g>
        <g stroke="#00315E">
            <path fill="#FFF" stroke-linecap="round" stroke-linejoin="round" stroke-width="1.3" d="M24.034 6.875V1.66c0-.914-.725-1.66-1.612-1.66H9.988C9.1 0 8.376.746 8.376 1.66v5.214h15.658z" transform="translate(1 1) translate(271 118)"/>
            <path stroke-linecap="square" stroke-width="1.2" d="M16.364 0L16.364 6.913" transform="translate(1 1) translate(271 118)"/>
            <path fill="#FFF" stroke-linecap="round" stroke-linejoin="round" stroke-width="1.3" d="M32.41 6.913c0 2.752-2.165 4.982-4.836 4.982H4.836C2.165 11.895 0 9.665 0 6.913h32.41z" transform="translate(1 1) translate(271 118)"/>
        </g>
        <g stroke="#00315E" stroke-linecap="round" stroke-linejoin="round" stroke-width="1.3">
            <path fill="#FFF" d="M10.478 33.281c-2.038.44-4.149.48-6.316-.061-1.339-.336-2.712-.933-3.454-2.097C.021 30.045 0 28.688 0 27.41L.006 9.962c0-1.47-.003-3.28 1.04-4.453C2.994 3.322 6.304 1.803 9.028.85c2.605-.915 5.65-1.292 8.228-.094 1.051.488 2.085 1.251 2.595 2.32.62 1.293.39 2.832.417 4.216.04 1.979.008 3.963.012 5.944l.02 11.597c.003.897 0 1.816-.3 2.661-.455 1.279-1.541 2.235-2.706 2.933-2.16 1.293-4.439 2.344-6.816 2.855z" transform="translate(1 1) translate(277 65)"/>
            <path d="M20.166 3.739c.664 2.552-1.855 5.666-8.243 7.958C5.108 14.14-.116 10.802.19 8.119" transform="translate(1 1) translate(277 65)"/>
        </g>
    </g>
</svg>
