<svg xmlns="http://www.w3.org/2000/svg" width="302" height="190" viewBox="0 0 302 190">
    <g fill="none" fill-rule="evenodd">
        <g>
            <path fill="#FFF" d="M64.064 113.16L172.216 113.16 172.216 0 64.064 0z" transform="translate(1 1) translate(.567 .569)"/>
            <path fill="#FFF" stroke="#00315E" stroke-linecap="round" stroke-linejoin="round" stroke-width="1.3" d="M64.065 113.16L172.216 113.16 172.216 0 64.065 0z" transform="translate(1 1) translate(.567 .569)"/>
            <path fill="#FFF" d="M64.064 113.159L0.001 177.353 118.142 177.353 172.216 113.159z" transform="translate(1 1) translate(.567 .569)"/>
            <path stroke="#00315E" stroke-linecap="round" stroke-linejoin="round" stroke-width="1.3" d="M64.065 113.159L0.001 177.353 118.141 177.353 172.215 113.159z" transform="translate(1 1) translate(.567 .569)"/>
            <path fill="#FFF" d="M0.002 187.134L118.142 187.134 118.142 177.489 0.002 177.489z" transform="translate(1 1) translate(.567 .569)"/>
            <path stroke="#00315E" stroke-linecap="round" stroke-linejoin="round" stroke-width="1.3" d="M0 187.136L118.14 187.136 118.14 177.491 0 177.491z" transform="translate(1 1) translate(.567 .569)"/>
            <path fill="#FFF" d="M118.141 177.49L118.141 187.135 172.217 123.449 172.217 113.159z" transform="translate(1 1) translate(.567 .569)"/>
            <path fill="#142CD2" d="M127.405 24.932c0-.876.688-1.627 1.519-1.627.553 0 1.111.309 1.111 1.132 0 .755-.612 1.582-1.559 1.582-.635 0-1.071-.369-1.071-1.087zm-19.507-4.37l-1.06 4.062c-.238.957.356 1.366 1.01 1.366.636 0 1.428-.384 1.677-1.37l1.059-4.058h1.393s-.953 3.631-1.068 4.062c-.241.904.39 1.366.933 1.366.857 0 1.534-.515 1.762-1.41l1.045-4.018h1.375l-1.103 4.208c-.415 1.639-1.904 2.426-3.231 2.426-.761 0-1.454-.27-1.858-.798-.634.533-1.446.798-2.207.798-1.405 0-2.572-.929-2.117-2.686l1.024-3.948h1.366zm14.038 0l-1.263 4.878c-.103.381.109.607.479.607h1.601c-.137-.095-.107-.396-.059-.58l1.272-4.905h1.3l-1.263 4.878c-.103.381.112.607.46.607h1.955c-.192-.252-.295-.692-.295-1.104 0-1.49 1.242-2.697 2.91-2.697 1.435 0 2.295 1.007 2.295 2.145 0 1.295-.802 2.268-2.147 2.587-.352.083-.87.127-1.31.127h-10.34c-.74 0-1.398-.386-1.382-1.27.003-.165.026-.34.078-.542l.755-2.927h1.298l-.795 3.074c-.1.363.086.607.46.607h1.479c-.138-.095-.107-.396-.06-.58l1.273-4.905h1.299zm-4.01-.435c.461 0 .85.361.843.802-.008.432-.411.802-.872.802-.451 0-.822-.37-.815-.802.009-.44.393-.802.844-.802z" transform="translate(1 1) translate(.567 .569)"/>
        </g>
        <g stroke="#00315E" stroke-linecap="round" stroke-linejoin="round" stroke-width="1.3">
            <path d="M144.314.689L144.314 10.98 90.238 74.665 90.238 65.021zM60.058 18.945v5.81s-21.096.95-28.89 8.03L9.558 54.336H.643l21.689-21.689s8.341-7.89 16.415-10.452c0 0 5.1-2.088 21.311-3.25zM60.058 18.945l7.298-10.076s2.066-3.228 8.2-2.776c0 0 5.75-.044 5.557 2.776L75.62 18.945v5.424s5.426.258 8.72 1.227c0 0 9.04 2.325 9.491 6.199" transform="translate(1 1) translate(28.47 113.039)"/>
            <path d="M75.621 18.945s9.968.387 14.96 2.798c0 0 9.388 2.928 4.823 8.698L74.741 54.335H9.556M60.058 24.757l8.526-12.012s1.484-2.712 5.552-2.39c0 0 3.1-.13 5.101 1.163" transform="translate(1 1) translate(28.47 113.039)"/>
        </g>
        <g opacity=".75">
            <path fill="#142CD2" d="M9.264 48.15H.379L22.001 26.53s8.316-7.864 16.363-10.42c0 0 5.084-2.08 21.245-3.24l7.276-10.042s2.06-3.22 8.176-2.77c0 0 5.732-.042 5.538 2.77L75.125 12.87s9.937.386 14.915 2.79c0 0 9.356 2.919 4.807 8.67L74.246 48.15H9.264" transform="translate(1 1) translate(28.98 119.34)"/>
            <path stroke="#142CD2" stroke-linecap="round" stroke-linejoin="round" stroke-width="1.3" d="M9.264 48.15H.379L22.001 26.53s8.316-7.864 16.363-10.42c0 0 5.084-2.08 21.245-3.24l7.276-10.042s2.06-3.22 8.176-2.77c0 0 5.732-.042 5.538 2.77L75.125 12.87s9.937.386 14.915 2.79c0 0 9.356 2.919 4.807 8.67L74.246 48.15H9.264" transform="translate(1 1) translate(28.98 119.34)"/>
        </g>
        <g>
            <g>
                <path fill="#4F61DE" d="M6.265.27C3.202.27.709 2.734.675 5.795.3 40.707-2.331 77.103 42.62 77.103" transform="translate(1 1) translate(214.65 58.05) translate(0 .59)"/>
                <path stroke="#00315E" stroke-linecap="round" stroke-linejoin="round" stroke-width="1.3" d="M6.265.27C3.202.27.709 2.734.675 5.795.3 40.707-2.331 77.103 42.62 77.103" transform="translate(1 1) translate(214.65 58.05) translate(0 .59)"/>
            </g>
            <g>
                <path fill="#FFF" d="M37.557 77.103c44.95 0 42.321-36.395 41.941-71.306C79.466 2.734 76.974.27 73.913.27H1.202" transform="translate(1 1) translate(214.65 58.05) translate(5.063 .59)"/>
                <path fill="#4F61DE" stroke="#00315E" stroke-linecap="round" stroke-linejoin="round" stroke-width="1.3" d="M37.557 77.103c44.95 0 42.321-36.395 41.941-71.306C79.466 2.734 76.974.27 73.913.27H.748" transform="translate(1 1) translate(214.65 58.05) translate(5.063 .59)"/>
            </g>
            <path fill="#8D9BF7" d="M6.172 9.242c-3.093 0-5.6 2.499-5.602 5.585-.012 33.388.958 62.865 42.032 62.865 41.072 0 42.042-29.477 42.032-62.865-.001-3.086-2.51-5.585-5.604-5.585H6.172z" transform="translate(1 1) translate(214.65 58.05)"/>
            <path stroke="#00315E" stroke-linecap="round" stroke-linejoin="round" stroke-width="1.3" d="M6.172 9.242c-3.093 0-5.6 2.499-5.602 5.585-.012 33.388.958 62.865 42.032 62.865 41.072 0 42.042-29.477 42.032-62.865-.001-3.086-2.51-5.585-5.604-5.585H6.172z" transform="translate(1 1) translate(214.65 58.05)"/>
            <path fill="#FFF" d="M79.026 17.745h.053c3.096.029 5.584 2.555 5.553 5.64.002 28.802-4.053 54.307-42.03 54.307-37.98 0-42.08-26.749-42.033-54.307v-.053c0-3.086 2.51-5.587 5.606-5.587h72.851z" transform="translate(1 1) translate(214.65 58.05)"/>
            <path fill="#CED5FF" stroke="#00315E" stroke-linecap="round" stroke-linejoin="round" stroke-width="1.3" d="M79.026 17.745h.053c3.096.029 5.584 2.555 5.553 5.64.002 28.802-4.053 54.307-42.03 54.307-37.98 0-42.08-26.749-42.033-54.307v-.053c0-3.086 2.51-5.587 5.606-5.587h72.851z" transform="translate(1 1) translate(214.65 58.05)"/>
            <path fill="#FFF" d="M78.878 26.343c2.924 0 5.356 2.256 5.572 5.173-.96 30.591-10.974 46.515-41.83 46.515C11.764 78.03 1.747 62.107.79 31.516c.216-2.917 2.646-5.173 5.572-5.173h72.517z" transform="translate(1 1) translate(214.65 58.05)"/>
            <path stroke="#00315E" stroke-linecap="round" stroke-linejoin="round" stroke-width="1.3" d="M78.878 26.343c2.924 0 5.356 2.256 5.572 5.173-.96 30.591-10.974 46.515-41.83 46.515C11.764 78.03 1.747 62.107.79 31.516c.216-2.917 2.646-5.173 5.572-5.173h72.517z" transform="translate(1 1) translate(214.65 58.05)"/>
            <path fill="#00315E" d="M42.23 75.644c-4.09 0-7.805-.283-11.066-.844-.401-.069-.671-.452-.602-.853.07-.404.45-.674.854-.605 3.51.605 7.575.878 12.086.814 4.06-.058 7.843-.392 11.247-.992.398-.071.786.197.857.599.071.403-.197.786-.6.857-3.48.614-7.343.957-11.482 1.014-.436.007-.868.01-1.295.01" transform="translate(1 1) translate(214.65 58.05)"/>
        </g>
    </g>
</svg>
