<svg xmlns="http://www.w3.org/2000/svg" width="22" height="26" viewBox="0 0 22 26">
    <path fill="#FFF" fill-rule="evenodd" d="M16.335 6.086c1.747 0 3.599.967 4.918 2.637-4.322 2.406-3.62 8.676.747 10.352-.6 1.353-.89 1.957-1.664 3.153-1.08 1.67-2.601 3.75-4.488 3.768-1.676.015-2.107-1.109-4.382-1.096-2.275.013-2.75 1.116-4.426 1.1-1.887-.018-3.33-1.896-4.41-3.566-3.02-4.67-3.336-10.15-1.473-13.063C2.48 7.3 4.569 6.088 6.533 6.088c2 0 3.256 1.114 4.91 1.114 1.604 0 2.58-1.116 4.892-1.116zM15.828 0c.23 1.58-.407 3.126-1.247 4.221-.899 1.173-2.449 2.081-3.947 2.034-.273-1.512.43-3.068 1.28-4.117C12.85.982 14.455.096 15.828 0z"/>
</svg>
