<svg xmlns="http://www.w3.org/2000/svg" width="591" height="626" viewBox="0 0 591 626">
    <g fill="none" fill-rule="evenodd">
        <g>
            <path fill="#FFF" d="M305.377 16.507L891.481 357.81s59.798 34.27 7.025 73.853L650.155 576.75s-59.659 33.036-132.853 1.264L.318 281.869l305.06-265.362z" transform="translate(-330.135 -136.243) translate(0 169.927)"/>
            <g>
                <path fill="#FFF0E4" d="M92.881 27.404c0 13.733-19.411 24.865-43.357 24.865-23.946 0-43.358-11.132-43.358-24.865 0-13.731 19.412-24.863 43.358-24.863 23.946 0 43.357 11.132 43.357 24.863" transform="translate(-330.135 -136.243) translate(0 169.927) translate(436.864 323.477)"/>
                <path stroke="#00315E" stroke-linecap="round" stroke-linejoin="round" stroke-width="3" d="M89.405 26.47c0 14.583-20.014 26.406-44.702 26.406C20.013 52.876 0 41.053 0 26.47 0 11.888 20.014.065 44.703.065c24.688 0 44.702 11.823 44.702 26.405z" transform="translate(-330.135 -136.243) translate(0 169.927) translate(436.864 323.477)"/>
                <path stroke="#00315E" stroke-linecap="round" stroke-linejoin="round" stroke-width="3" d="M88.034 23.772c0 13.063-19.412 23.653-43.357 23.653-23.946 0-43.358-10.59-43.358-23.653C1.319 10.709 20.73.119 44.677.119c23.945 0 43.357 10.59 43.357 23.653z" transform="translate(-330.135 -136.243) translate(0 169.927) translate(436.864 323.477)"/>
            </g>
        </g>
        <path fill="#FFF" d="M1376.032 656.425L533.25 172.931l842.782 483.494z" transform="translate(-330.135 -136.243)"/>
        <g>
            <g>
                <path fill="#FFF" d="M.428 1.018v13.46c0 13.089 17.673 23.7 39.475 23.7 21.8 0 39.09-10.611 39.09-23.7V.426" transform="translate(-330.135 -136.243) translate(222.236 .013) translate(390.375 309.902)"/>
                <path stroke="#00315E" stroke-width="3" d="M.428 1.018v13.46c0 13.089 17.673 23.7 39.475 23.7 21.8 0 39.09-10.611 39.09-23.7V.426" transform="translate(-330.135 -136.243) translate(222.236 .013) translate(390.375 309.902)"/>
            </g>
            <path fill="#FFF" d="M469.368 310.329c0 12.813-17.593 23.2-39.295 23.2-21.7 0-39.294-10.387-39.294-23.2 0-12.814 17.593-23.2 39.294-23.2 21.702 0 39.295 10.386 39.295 23.2" transform="translate(-330.135 -136.243) translate(222.236 .013)"/>
            <path stroke="#00315E" stroke-width="3" d="M469.368 310.329c0 12.813-17.593 23.2-39.295 23.2-21.7 0-39.294-10.387-39.294-23.2 0-12.814 17.593-23.2 39.294-23.2 21.702 0 39.295 10.386 39.295 23.2z" transform="translate(-330.135 -136.243) translate(222.236 .013)"/>
            <path fill="#FFF" d="M463.519 308.862c0 10.856-14.976 19.657-33.45 19.657-18.475 0-33.452-8.8-33.452-19.657s14.977-19.657 33.451-19.657c18.475 0 33.45 8.8 33.45 19.657" transform="translate(-330.135 -136.243) translate(222.236 .013)"/>
            <path stroke="#231F20" stroke-width="2.422" d="M463.519 308.862c0 10.856-14.976 19.657-33.45 19.657-18.475 0-33.452-8.8-33.452-19.657s14.977-19.657 33.451-19.657c18.475 0 33.45 8.8 33.45 19.657z" transform="translate(-330.135 -136.243) translate(222.236 .013)"/>
            <path fill="#FFF" d="M463.3 190.658c0 11.137-14.822 20.166-33.106 20.166-18.284 0-33.106-9.029-33.106-20.166 0-11.138 14.822-20.167 33.106-20.167 18.284 0 33.105 9.029 33.105 20.167" transform="translate(-330.135 -136.243) translate(222.236 .013)"/>
            <path stroke="#231F20" stroke-width="2.422" d="M463.3 190.658c0 11.137-14.822 20.166-33.106 20.166-18.284 0-33.106-9.029-33.106-20.166 0-11.138 14.822-20.167 33.106-20.167 18.284 0 33.105 9.029 33.105 20.167z" transform="translate(-330.135 -136.243) translate(222.236 .013)"/>
            <g>
                <path fill="#FFF" d="M1.823 0.171L0.605 37.327" transform="translate(-330.135 -136.243) translate(222.236 .013) translate(396.127 157.88)"/>
                <path stroke="#231F20" stroke-width="2.422" d="M1.823 0.171L0.605 37.327" transform="translate(-330.135 -136.243) translate(222.236 .013) translate(396.127 157.88)"/>
            </g>
            <path fill="#FFF" d="M463.3 158.051c0 11.138-14.822 20.167-33.106 20.167-18.284 0-33.106-9.029-33.106-20.167 0-11.138 14.822-20.166 33.106-20.166 18.284 0 33.105 9.028 33.105 20.166" transform="translate(-330.135 -136.243) translate(222.236 .013)"/>
            <path stroke="#00315E" stroke-width="3" d="M463.3 158.051c0 11.138-14.822 20.167-33.106 20.167-18.284 0-33.106-9.029-33.106-20.167 0-11.138 14.822-20.166 33.106-20.166 18.284 0 33.105 9.028 33.105 20.166z" transform="translate(-330.135 -136.243) translate(222.236 .013)"/>
            <path fill="#FFF" d="M463.519 308.862l-.22-114.853s-5.024 16.243-33.106 16.816c0 0-24.602 0-32.627-16.735l-1.12 1.117v113.655s.768 20.147 36.435 19.585c0 0 29.33-.807 30.638-19.585" transform="translate(-330.135 -136.243) translate(222.236 .013)"/>
            <path stroke="#00315E" stroke-width="3" d="M463.519 308.862l-.22-114.853s-5.024 16.243-33.106 16.816c0 0-24.602 0-32.627-16.735l-1.12 1.117v113.655s.768 20.147 36.435 19.585c0 0 29.33-.807 30.638-19.585z" transform="translate(-330.135 -136.243) translate(222.236 .013)"/>
            <path fill="#FFF" d="M463.3 158.051s.726 26.304 0 35.958c0 0-4.567 16.189-33.106 16.815 0 0-25.178 1.13-33.748-17.412l.642-35.36s-1.433 18.82 33.106 20.166c0 0 32.032.044 33.105-20.167" transform="translate(-330.135 -136.243) translate(222.236 .013)"/>
            <path stroke="#00315E" stroke-width="3" d="M463.3 158.051s.726 26.304 0 35.958c0 0-4.567 16.189-33.106 16.815 0 0-25.178 1.13-33.748-17.412l.642-35.36s-1.433 18.82 33.106 20.166c0 0 32.032.044 33.105-20.167z" transform="translate(-330.135 -136.243) translate(222.236 .013)"/>
            <path fill="#FFF" d="M334.211 206.754L345.841 213.904 345.883 224.01 334.211 216.775z" transform="translate(-330.135 -136.243) translate(222.236 .013)"/>
            <path stroke="#00315E" stroke-linecap="round" stroke-linejoin="round" stroke-width="3" d="M334.211 206.754L345.841 213.904 345.883 224.01 334.211 216.775z" transform="translate(-330.135 -136.243) translate(222.236 .013)"/>
            <path fill="#FFF0E4" stroke="#00315E" stroke-linecap="round" stroke-linejoin="round" stroke-width="3" d="M345.883 223.998l63.016-36.465s4.179-2.582 8.358.024v-10.855c-4.899-1.55-10.666 2.292-10.666 2.292l-60.75 34.898.042 10.106z" transform="translate(-330.135 -136.243) translate(222.236 .013)"/>
            <path fill="#FFF" d="M334.21 206.754l62.365-35.522s4.158-1.799.748-9.952c0 0 1.37 10.135 19.933 15.359 0 0-4.083-1.447-12.984 3.879l-58.431 33.386-11.63-7.15z" transform="translate(-330.135 -136.243) translate(222.236 .013)"/>
            <path stroke="#00315E" stroke-linecap="round" stroke-linejoin="round" stroke-width="3" d="M334.21 206.754l62.365-35.522s4.158-1.799.748-9.952c0 0 1.37 10.135 19.933 15.359 0 0-4.083-1.447-12.984 3.879l-58.431 33.386-11.63-7.15z" transform="translate(-330.135 -136.243) translate(222.236 .013)"/>
            <path fill="#FFF0E4" d="M330.54 310.445v12.225s-.002 6.7-8.669 9.457c-8.667 2.758-19.603 2.166-24.811-7.13l33.48-14.552z" transform="translate(-330.135 -136.243) translate(222.236 .013)"/>
            <path stroke="#00315E" stroke-width="3" d="M326.796 309.51v12.225s0 6.7-8.668 9.457c-8.667 2.758-19.603 2.166-24.812-7.13l33.48-14.552z" transform="translate(-330.135 -136.243) translate(222.236 .013)"/>
            <g>
                <path fill="#FFF" d="M.472 67.709L115.797.283s19.265 10.605 25.594 17.614c0 0 10.498 7.596-.127 16.1L21.418 103.968" transform="translate(-330.135 -136.243) translate(222.236 .013) translate(280.453 223.671)"/>
                <path stroke="#00315E" stroke-width="3" d="M.472 67.709L115.797.283s19.265 10.605 25.594 17.614c0 0 10.498 7.596-.127 16.1L21.418 103.968" transform="translate(-330.135 -136.243) translate(222.236 .013) translate(280.453 223.671)"/>
            </g>
            <path fill="#FFF" d="M301.995 303.395c5.784 10.013 5.729 20.868-.123 24.245-5.853 3.377-15.286-2.003-21.07-12.015-5.784-10.013-5.729-20.868.123-24.246 5.853-3.377 15.286 2.003 21.07 12.016" transform="translate(-330.135 -136.243) translate(222.236 .013)"/>
            <path stroke="#00315E" stroke-width="3" d="M301.995 303.395c5.784 10.013 5.729 20.868-.123 24.245-5.853 3.377-15.286-2.003-21.07-12.015-5.784-10.013-5.729-20.868.123-24.246 5.853-3.377 15.286 2.003 21.07 12.016z" transform="translate(-330.135 -136.243) translate(222.236 .013)"/>
        </g>
    </g>
</svg>
