<svg xmlns="http://www.w3.org/2000/svg" xmlns:xlink="http://www.w3.org/1999/xlink" width="24" height="24" viewBox="0 0 24 24">
    <defs>
        <circle id="prefix__a" cx="11.957" cy="11.957" r="11.957"/>
    </defs>
    <g fill="none" fill-rule="evenodd">
        <mask id="prefix__b" fill="#fff">
            <use xlink:href="#prefix__a"/>
        </mask>
        <use fill="#FFF" xlink:href="#prefix__a"/>
        <g mask="url(#prefix__b)">
            <g>
                <path fill="#FFDCCC" d="M56.437 17.65l-2.92 11.497c-.805 2.773-3.888 4.811-7.745 4.692l-.083-.001c-5.087-.366-5.632-3.179-4.671-6.176l2.512-10.089 12.907.077z" transform="rotate(-180 20.603 16.793)"/>
                <path fill="#9CF" d="M66.835 45.277L67.077 0h-1.128v.016c-.125.003-.246.007-.337.011h-.062c-5.13 0-9.648 3.047-12.3 7.674-.666 1.136-1.248 2.442-1.71 3.939-.089.16-.154.281-.168.32-.035.136-.11.399-.25.746-.478.974-1.482 2.529-3.386 3.653-1.99 1.316-4.56 2.155-7.39 2.276-.995.114-2.077.187-3.257.207-1.076.017-2.012.116-2.826.281l-.069.014-.05.01c-4.095.803-7.617 3.566-9.834 7.434-.689 1.175-1.288 2.53-1.758 4.093 0 0-.781 2.81-3.754 4.566-1.992 1.316-4.562 2.155-7.39 2.275-.996.115-2.078.187-3.258.206-6.546.107-7.918 3.23-8.133 5.78H0v1.72l66.835.056z" transform="rotate(-180 20.603 16.793)"/>
                <path fill="#00315E" d="M39.265.077l-2.92 11.497c-.806 2.773-3.888 4.811-7.745 4.691h-.083c-5.087-.367-5.632-3.18-4.672-6.177L26.358 0l12.907.077z" transform="rotate(-180 20.603 16.793)"/>
                <path fill="#FFDCCC" d="M29.813 5.678l-2.92 11.497c-.806 2.773-3.888 4.811-7.745 4.691h-.083c-5.087-.367-5.632-3.179-4.672-6.177l2.513-10.088 12.907.077z" transform="rotate(-180 20.603 16.793)"/>
            </g>
        </g>
    </g>
</svg>
