<svg xmlns="http://www.w3.org/2000/svg" width="152" height="94" viewBox="0 0 152 94">
    <g fill="none" fill-rule="evenodd">
        <g fill="#FFDCCC">
            <path d="M117.9 27c-.52 0-.942-.422-.942-.942 0-6.405-5.211-11.616-11.616-11.616-.52 0-.942-.422-.942-.942s.422-.942.942-.942c6.405 0 11.616-5.211 11.616-11.616 0-.52.422-.942.942-.942s.942.422.942.942c0 6.405 5.211 11.616 11.616 11.616.52 0 .942.422.942.942s-.422.942-.942.942c-6.405 0-11.616 5.211-11.616 11.616 0 .52-.422.942-.942.942M137.7 59.4c-.52 0-.942-.422-.942-.942 0-6.405-5.211-11.616-11.616-11.616-.52 0-.942-.422-.942-.942s.422-.942.942-.942c6.405 0 11.616-5.211 11.616-11.616 0-.52.422-.942.942-.942s.942.422.942.942c0 6.405 5.211 11.616 11.616 11.616.52 0 .942.422.942.942s-.422.942-.942.942c-6.405 0-11.616 5.211-11.616 11.616 0 .52-.422.942-.942.942M16.2 52.2c-.624 0-1.13-.506-1.13-1.13 0-7.686-6.254-13.94-13.94-13.94C.506 37.13 0 36.624 0 36c0-.624.506-1.13 1.13-1.13 7.686 0 13.94-6.254 13.94-13.94 0-.624.506-1.13 1.13-1.13.624 0 1.13.506 1.13 1.13 0 7.686 6.254 13.94 13.94 13.94.624 0 1.13.506 1.13 1.13 0 .624-.506 1.13-1.13 1.13-7.686 0-13.94 6.254-13.94 13.94 0 .624-.506 1.13-1.13 1.13" transform="translate(0 2) translate(0 7.2)"/>
        </g>
        <g>
            <path fill="#D1FFED" d="M62.335 61.205c.744-1.449 1.144-2.635 1.331-3.279-.772-.457-5.4-3.117-11.418-5.2-7.721-1.95-15.255-2.278-16.815-2.326-1.562.048-9.094.376-16.815 2.325C12.6 54.81 7.972 57.47 7.2 57.926c.185.644.587 1.828 1.33 3.278C15.013 72.91 29.14 74.02 33.856 74.053c.522-.007 1.037-.01 1.577-.035.538.025 1.057.028 1.575.035 4.719-.033 18.845-1.143 25.327-12.848l1.331.904" transform="translate(0 2) translate(40.5)"/>
            <path stroke="#00315E" stroke-linecap="round" stroke-linejoin="round" stroke-width="3" d="M71.265 22.159v34.304c0 18.261-13.324 33.202-29.61 33.202H29.683c-16.286 0-29.61-14.94-29.61-33.202V21.986" transform="translate(0 2) translate(40.5)"/>
            <path stroke="#00315E" stroke-linecap="round" stroke-linejoin="round" stroke-width="3" d="M.05 24.456v-1.675C.05 10.462 10.12.48 22.543.48c4.96 0 9.548 1.592 13.265 4.29M35.764 4.595C39.438 2.002 43.934.48 48.788.48c12.423 0 22.495 9.983 22.495 22.301v1.676M35.381 13.346v7.322c0 1.677-1.402 3.049-3.117 3.049h-2.322c-1.716 0-3.117-1.372-3.117-3.049v-6.32M43.938 14.119v6.549c0 1.677-1.401 3.049-3.117 3.049h-2.322c-1.715 0-3.117-1.372-3.117-3.049v-6.32M52.807 17.21v3.458c0 1.677-1.401 3.049-3.117 3.049h-2.322c-1.715 0-3.117-1.372-3.117-3.049v-6.32" transform="translate(0 2) translate(40.5)"/>
            <path stroke="#00315E" stroke-linecap="round" stroke-linejoin="round" stroke-width="3" d="M60.466 24.35c-.566.562-1.353.912-2.22.912h-2.322c-1.714 0-3.117-1.372-3.117-3.049v-4.775M18.505 17.982v2.686c0 1.677 1.403 3.049 3.117 3.049h2.324c1.714 0 3.117-1.372 3.117-3.049v-6.32" transform="translate(0 2) translate(40.5)"/>
            <path stroke="#00315E" stroke-linecap="round" stroke-linejoin="round" stroke-width="3" d="M10.68 24.096c.572.709 1.459 1.166 2.447 1.166h2.324c1.714 0 3.117-1.372 3.117-3.049v-4.775" transform="translate(0 2) translate(40.5)"/>
            <path fill="#FFF" stroke="#00315E" stroke-linecap="round" stroke-linejoin="round" stroke-width="3" d="M35.765 78.875v-7.32c0-1.677 1.403-3.05 3.117-3.05h2.322c1.716 0 3.117 1.373 3.117 3.05v6.32M27.208 78.102v-6.547c0-1.677 1.401-3.05 3.117-3.05h2.322c1.715 0 3.117 1.373 3.117 3.05v6.32M18.339 75.012v-3.457c0-1.677 1.401-3.05 3.117-3.05h2.322c1.715 0 3.118 1.373 3.118 3.05v6.32" transform="translate(0 2) translate(40.5)"/>
            <path fill="#FFF" stroke="#00315E" stroke-linecap="round" stroke-linejoin="round" stroke-width="3" d="M10.68 67.873c.566-.562 1.353-.913 2.22-.913h2.322c1.714 0 3.117 1.372 3.117 3.049v4.775M52.641 74.239v-2.684c0-1.677-1.402-3.05-3.117-3.05H47.2c-1.714 0-3.117 1.373-3.117 3.05v6.32" transform="translate(0 2) translate(40.5)"/>
            <path fill="#FFF" stroke="#00315E" stroke-linecap="round" stroke-linejoin="round" stroke-width="3" d="M60.466 68.127c-.572-.71-1.459-1.167-2.447-1.167h-2.324c-1.714 0-3.117 1.372-3.117 3.05v4.774" transform="translate(0 2) translate(40.5)"/>
            <path stroke="#00315E" stroke-linecap="round" stroke-linejoin="round" stroke-width="3" d="M37.99 79.353h-4.899c-15.428 0-28.054-12.517-28.054-27.816V40.782c0-15.3 12.626-27.816 28.054-27.816h4.899c15.43 0 28.054 12.517 28.054 27.816v10.755c0 15.299-12.624 27.816-28.054 27.816z" transform="translate(0 2) translate(40.5)"/>
            <path stroke="#00315E" stroke-linecap="round" stroke-linejoin="round" stroke-width="3" d="M7.15 61.841s13.219-9.3 28.413-6.853c0 0 14.648-2.555 27.702 6.527M35.454 54.934L35.454 64.018" transform="translate(0 2) translate(40.5)"/>
        </g>
    </g>
</svg>
