<svg xmlns="http://www.w3.org/2000/svg" xmlns:xlink="http://www.w3.org/1999/xlink" width="24" height="24" viewBox="0 0 24 24">
    <defs>
        <circle id="prefix__a" cx="11.957" cy="11.957" r="11.957"/>
    </defs>
    <g fill="none" fill-rule="evenodd">
        <mask id="prefix__b" fill="#fff">
            <use xlink:href="#prefix__a"/>
        </mask>
        <use fill="#FFF0E4" xlink:href="#prefix__a"/>
        <rect width="20.146" height="23.924" x="-2.524" y="11.327" fill="#8EEDBE" mask="url(#prefix__b)" rx=".63" transform="rotate(90 7.55 23.289)"/>
        <path fill="#142CD2" d="M14.384 20.141l.09-16.999h-.423v.007c-.047 0-.092.002-.126.004h-.023c-1.926 0-3.623 1.143-4.618 2.88-.25.427-.469.918-.642 1.48-.034.06-.058.105-.063.12-.013.05-.041.15-.094.28-.18.365-.557.95-1.271 1.371-.748.494-1.713.81-2.775.855-.373.042-.78.07-1.222.077-.405.007-.756.044-1.062.106l-.025.005-.02.004c-1.537.301-2.859 1.339-3.691 2.79-.259.442-.484.95-.66 1.538 0 0-.294 1.054-1.41 1.714-.748.494-1.713.809-2.774.854-.374.043-.78.07-1.223.077-2.458.04-2.973 1.213-3.054 2.17h-.006v.646l25.092.021z" mask="url(#prefix__b)"/>
    </g>
</svg>
