<svg xmlns="http://www.w3.org/2000/svg" xmlns:xlink="http://www.w3.org/1999/xlink" width="250" height="250" viewBox="0 0 250 250">
    <defs>
        <rect id="prefix__a" width="250" height="250" x="0" y="0" rx="125"/>
    </defs>
    <g fill="none" fill-rule="evenodd">
        <mask id="prefix__b" fill="#fff">
            <use xlink:href="#prefix__a"/>
        </mask>
        <use fill="#FFF" xlink:href="#prefix__a"/>
        <g mask="url(#prefix__b)">
            <g>
                <g stroke="#00315E" stroke-width="1.324" transform="translate(46 98) translate(58.258)">
                    <path fill="#142CD2" fill-opacity=".75" stroke-linecap="round" stroke-linejoin="round" d="M40.055 44.328H4.292C1.932 44.328 0 42.397 0 40.036V4.292C0 1.932 1.932 0 4.292 0h35.763c2.36 0 4.292 1.932 4.292 4.292v35.744c0 2.36-1.932 4.292-4.292 4.292z"/>
                    <rect width="9.735" height="5.31" x="17.7" y="44.426" fill="#FFF" rx=".885"/>
                    <path stroke-linecap="round" stroke-linejoin="round" d="M.087 39.782L44.336 39.782M.087 4.723L44.336 4.723"/>
                </g>
                <g stroke="#00315E" stroke-width="1.324" transform="translate(46 98) translate(112.241)">
                    <path fill="#142CD2" fill-opacity=".75" stroke-linecap="round" stroke-linejoin="round" d="M40.055 44.328H4.292C1.932 44.328 0 42.397 0 40.036V4.292C0 1.932 1.932 0 4.292 0h35.763c2.36 0 4.292 1.932 4.292 4.292v35.744c0 2.36-1.932 4.292-4.292 4.292z"/>
                    <rect width="9.735" height="5.31" x="17.7" y="44.426" fill="#FFF" rx=".885"/>
                    <path stroke-linecap="round" stroke-linejoin="round" d="M.087 39.782L44.336 39.782M.087 4.723L44.336 4.723"/>
                </g>
                <path fill="#FFF" d="M32.55 49.534l-.015-6.225c-.237-6.303 2.069-7.771 2.069-7.771 7.604-5.541 9.733-12.06 9.733-12.06 5.491-13.363 4.325-19.556 4.325-19.556C43.49-1.638 33.942.744 33.942.744c-.665.245-.798.917-.863 1.161 0 0-2.43 11.527-3.714 20.412 0 0-.349 1.04-1.494 1.83 0 0-.084.052-.137.091-.712.452-1.71.796-3.082.773h-.306c-1.371.023-2.37-.321-3.082-.773-.052-.04-.136-.091-.136-.091-1.147-.79-1.495-1.83-1.495-1.83-1.284-8.885-3.714-20.412-3.714-20.412-.066-.244-.198-.916-.861-1.161 0 0-9.55-2.383-14.722 3.178 0 0-1.165 6.193 4.324 19.556 0 0 2.131 6.519 9.735 12.06 0 0 2.306 1.468 2.068 7.771l-.015 6.225h16.103z" transform="translate(46 98)"/>
                <path fill="#FFF" stroke="#00315E" stroke-linecap="round" stroke-linejoin="round" stroke-width="1.324" d="M32.55 49.534l-.015-6.225c-.237-6.303 2.069-7.771 2.069-7.771 7.604-5.541 9.733-12.06 9.733-12.06 5.491-13.363 4.325-19.556 4.325-19.556C43.49-1.638 33.942.744 33.942.744c-.665.245-.798.917-.863 1.161 0 0-2.43 11.527-3.714 20.412 0 0-.349 1.04-1.494 1.83 0 0-.084.052-.137.091-.712.452-1.71.796-3.082.773h-.306c-1.371.023-2.37-.321-3.082-.773-.052-.04-.136-.091-.136-.091-1.147-.79-1.495-1.83-1.495-1.83-1.284-8.885-3.714-20.412-3.714-20.412-.066-.244-.198-.916-.861-1.161 0 0-9.55-2.383-14.722 3.178 0 0-1.165 6.193 4.324 19.556 0 0 2.131 6.519 9.735 12.06 0 0 2.306 1.468 2.068 7.771l-.015 6.225h16.103z" transform="translate(46 98)"/>
                <path stroke="#00315E" stroke-linecap="round" stroke-linejoin="round" stroke-width="1.324" d="M35.972 34.474c-3.093 2.386-7.113 3.829-11.507 3.829-3.97 0-7.637-1.178-10.588-3.167" transform="translate(46 98)"/>
            </g>
        </g>
    </g>
</svg>
