<svg xmlns="http://www.w3.org/2000/svg" width="21" height="26" viewBox="0 0 21 26">
    <g fill="none" fill-rule="evenodd">
        <path fill="#FFF" d="M17.184 19.55c0 .458-.363.828-.812.828H4.438c-.448 0-.812-.37-.812-.827V8.7c0-.457.364-.828.812-.828h11.934c.449 0 .812.37.812.828v10.85z"/>
        <path fill="#FFF" d="M3.613 13.572L17.197 13.572 17.197 7.872 3.613 7.872zM20.81 15.492c0 .813-.646 1.472-1.444 1.472-.798 0-1.445-.659-1.445-1.472V8.874c0-.813.647-1.473 1.445-1.473s1.444.66 1.444 1.473v6.618zM2.89 15.492c0 .813-.648 1.472-1.445 1.472-.798 0-1.445-.659-1.445-1.472V8.874c0-.813.647-1.473 1.445-1.473.797 0 1.444.66 1.444 1.473v6.618zM3.67 7.057s.15-5.86 6.735-5.84c6.524.02 6.736 5.84 6.736 5.84H3.67z"/>
        <path fill="#1D44C5" d="M8.26 4.066c0 .456-.363.826-.811.826-.448 0-.81-.37-.81-.826 0-.457.362-.827.81-.827.448 0 .81.37.81.827M14.172 4.066c0 .456-.363.826-.81.826-.448 0-.811-.37-.811-.826 0-.457.363-.827.81-.827.448 0 .811.37.811.827"/>
        <path fill="#FFF" d="M7.226 2.005c.024.034.097.024.164-.025.067-.048.101-.115.077-.15L6.21.02c-.024-.035-.098-.023-.164.025-.067.048-.101.115-.077.15l1.258 1.81zM13.584 2.005c-.023.034-.097.024-.164-.025-.066-.048-.101-.115-.077-.15L14.6.02c.024-.035.098-.023.164.025.067.048.102.115.078.15l-1.259 1.81zM14.638 24.057c0 .814-.647 1.473-1.445 1.473s-1.445-.66-1.445-1.473V17.44c0-.813.647-1.473 1.445-1.473s1.445.66 1.445 1.473v6.618zM9.062 24.057c0 .814-.647 1.473-1.445 1.473-.797 0-1.444-.66-1.444-1.473V17.44c0-.813.647-1.473 1.444-1.473.798 0 1.445.66 1.445 1.473v6.618z"/>
    </g>
</svg>
