<svg xmlns="http://www.w3.org/2000/svg" width="285" height="165" viewBox="0 0 285 165">
    <g fill="none" fill-rule="evenodd">
        <path fill="#FFF" d="M0.674 164.311L284.08 164.311 284.08 0.675 0.674 0.675z"/>
        <path fill="#FFF" stroke="#00315E" stroke-width="1.3" d="M0.674 164.31L284.08 164.31 284.08 0.674 0.674 0.674z"/>
        <path fill="#FFF" d="M240.393 128.6H44.363c-4.21 0-7.654-3.445-7.654-7.655V43.887c0-4.209 3.444-7.653 7.654-7.653h196.03c4.21 0 7.654 3.444 7.654 7.653v77.058c0 4.21-3.444 7.655-7.654 7.655"/>
        <path stroke="#00315E" stroke-width="1.3" d="M240.393 128.6H44.363c-4.21 0-7.654-3.445-7.654-7.655V43.887c0-4.209 3.444-7.653 7.654-7.653h196.03c4.21 0 7.654 3.444 7.654 7.653v77.058c0 4.21-3.444 7.655-7.654 7.655zM.675.674L8.553 8.541 276.203 8.541 284.082.674M284.081 164.31L276.068 156.444 8.688 156.444.674 164.31M8.719 8.541L8.719 156.444M276.248 8.541L276.248 156.444"/>
        <g>
            <g stroke="#00315E" stroke-width="1.3" transform="translate(54 54) translate(65.83)">
                <path fill="#142CD2" fill-opacity=".75" stroke-linecap="round" stroke-linejoin="round" d="M45.26 50.09H4.85C2.183 50.09 0 47.906 0 45.24V4.85C0 2.183 2.183 0 4.85 0h40.41c2.668 0 4.85 2.183 4.85 4.85v40.39c0 2.667-2.182 4.85-4.85 4.85z"/>
                <rect width="11" height="6" x="20" y="50.2" fill="#FFF" rx="1"/>
                <path stroke-linecap="round" stroke-linejoin="round" d="M.098 44.952L50.098 44.952M.098 5.337L50.098 5.337"/>
            </g>
            <g stroke="#00315E" stroke-width="1.3" transform="translate(54 54) translate(126.83)">
                <path fill="#142CD2" fill-opacity=".75" stroke-linecap="round" stroke-linejoin="round" d="M45.26 50.09H4.85C2.183 50.09 0 47.906 0 45.24V4.85C0 2.183 2.183 0 4.85 0h40.41c2.668 0 4.85 2.183 4.85 4.85v40.39c0 2.667-2.182 4.85-4.85 4.85z"/>
                <rect width="11" height="6" x="20" y="50.2" fill="#FFF" rx="1"/>
                <path stroke-linecap="round" stroke-linejoin="round" d="M.098 44.952L50.098 44.952M.098 5.337L50.098 5.337"/>
            </g>
            <path fill="#FFF" d="M36.781 55.972l-.017-7.034c-.269-7.122 2.337-8.782 2.337-8.782C47.694 33.896 50.1 26.53 50.1 26.53c6.204-15.1 4.886-22.099 4.886-22.099C49.142-1.852 38.352.841 38.352.841c-.75.276-.9 1.036-.974 1.312 0 0-2.747 13.024-4.197 23.065 0 0-.393 1.176-1.688 2.068 0 0-.095.058-.155.102-.805.51-1.932.9-3.482.874h-.346c-1.549.025-2.677-.364-3.482-.874-.06-.044-.154-.103-.154-.103-1.296-.891-1.69-2.067-1.69-2.067-1.45-10.04-4.196-23.065-4.196-23.065-.075-.276-.224-1.036-.973-1.312 0 0-10.79-2.693-16.636 3.59 0 0-1.316 6.998 4.887 22.099 0 0 2.408 7.365 11 13.626 0 0 2.605 1.66 2.337 8.782l-.017 7.034h18.195z" transform="translate(54 54)"/>
            <path fill="#E5F0FF" stroke="#00315E" stroke-linecap="round" stroke-linejoin="round" stroke-width="1.3" d="M36.781 55.972l-.017-7.034c-.269-7.122 2.337-8.782 2.337-8.782C47.694 33.896 50.1 26.53 50.1 26.53c6.204-15.1 4.886-22.099 4.886-22.099C49.142-1.852 38.352.841 38.352.841c-.75.276-.9 1.036-.974 1.312 0 0-2.747 13.024-4.197 23.065 0 0-.393 1.176-1.688 2.068 0 0-.095.058-.155.102-.805.51-1.932.9-3.482.874h-.346c-1.549.025-2.677-.364-3.482-.874-.06-.044-.154-.103-.154-.103-1.296-.891-1.69-2.067-1.69-2.067-1.45-10.04-4.196-23.065-4.196-23.065-.075-.276-.224-1.036-.973-1.312 0 0-10.79-2.693-16.636 3.59 0 0-1.316 6.998 4.887 22.099 0 0 2.408 7.365 11 13.626 0 0 2.605 1.66 2.337 8.782l-.017 7.034h18.195z" transform="translate(54 54)"/>
            <path stroke="#00315E" stroke-linecap="round" stroke-linejoin="round" stroke-width="1.3" d="M40.648 38.954c-3.495 2.697-8.038 4.327-13.004 4.327-4.486 0-8.628-1.331-11.964-3.578" transform="translate(54 54)"/>
        </g>
    </g>
</svg>
