<svg xmlns="http://www.w3.org/2000/svg" width="52" height="12" viewBox="0 0 52 12">
    <path fill="#00315E" fill-rule="evenodd" d="M49.59 4.838c.314 0 .566-.252.566-.566 0-.314-.252-.565-.566-.565-.315 0-.566.251-.566.565 0 .314.251.566.566.566zm0-1.026c.251 0 .46.209.46.46 0 .252-.209.461-.46.461-.252 0-.461-.21-.461-.46 0-.252.21-.461.46-.461zM9.348 0H6.812C6.77 2.66 5.219 4.963 2.997 6.094l3.92 5.697h3.185L6.54 6.618C8.3 4.88 9.306 2.534 9.348 0zM0 11.79h2.62V0H0v11.79zm49.506-7.455h.105l.104.23h.105l-.105-.23c.063-.02.105-.084.105-.167 0-.105-.084-.189-.21-.189h-.209v.586h.105v-.23zm0-.272h.105c.063 0 .104.042.104.084 0 .062-.02.084-.104.084h-.105v-.168zm-3.542.398c-.67-.482-1.51-.754-2.41-.754-2.306 0-4.15 1.864-4.15 4.146 0 2.283 1.865 4.147 4.15 4.147.9 0 1.718-.293 2.41-.754v.545h2.054V3.916h-2.054v.545zm-2.222 5.508c-1.237 0-2.222-.943-2.222-2.116 0-1.172 1.006-2.115 2.222-2.115 1.237 0 2.222.943 2.222 2.115.02 1.173-.985 2.116-2.222 2.116zm6.77-.964c-.817 0-1.488.67-1.488 1.487 0 .817.67 1.487 1.488 1.487.817 0 1.488-.67 1.488-1.487 0-.838-.67-1.487-1.488-1.487zm-15.3-5.298c-.944 0-1.845.293-2.432 1.089v-.88h-2.368v7.875h2.368V7.476c0-1.193.797-1.78 1.782-1.78 1.027 0 1.635.629 1.635 1.76v4.313h2.368V6.764c0-1.8-1.467-3.057-3.353-3.057zm-14.106.754c-.67-.482-1.51-.754-2.41-.754-2.306 0-4.15 1.864-4.15 4.146 0 2.283 1.865 4.147 4.15 4.147.9 0 1.718-.293 2.41-.754v.545h2.054V3.916h-2.054v.545zm-2.2 5.508c-1.237 0-2.222-.943-2.222-2.116 0-1.172 1.006-2.115 2.221-2.115 1.237 0 2.222.943 2.222 2.115 0 1.173-1.006 2.116-2.222 2.116zm8.09-4.985V3.937H24.627v7.875h2.369V7.686c0-1.194 1.341-1.717 2.284-1.466h.021V3.937c-.964-.02-1.844.398-2.305 1.047zm-15.93 6.807h2.516V0h-2.515v11.79z"/>
</svg>
