<svg xmlns="http://www.w3.org/2000/svg" width="414" height="294" viewBox="0 0 414 294">
    <path fill="#FFF0E4" fill-rule="evenodd" d="M-120.02-282v10.775L-501-187.172v581.803h380.98v-.13c1.011-.024 1.992-.055 2.723-.087.169.001.336.008.505.008 41.51 0 78.077-24.152 99.544-60.824 5.39-9.002 10.094-19.35 13.829-31.217.723-1.277 1.246-2.235 1.364-2.544.281-1.074.886-3.16 2.027-5.907 3.862-7.721 11.99-20.043 27.393-28.952 16.113-10.434 36.913-17.082 59.8-18.035 8.058-.908 16.815-1.484 26.365-1.637 8.712-.14 16.282-.928 22.874-2.234.186-.034.37-.076.553-.11l.419-.083c33.12-6.362 61.626-28.256 79.573-58.917 5.575-9.312 10.426-20.05 14.22-32.436 0 0 6.33-22.266 30.393-36.184 16.111-10.434 36.913-17.081 59.799-18.035 8.06-.908 16.818-1.482 26.366-1.637 52.972-.848 64.074-25.599 65.82-45.792h.134v-98.624-222.035L-120.02-282z"/>
</svg>
