<svg xmlns="http://www.w3.org/2000/svg" width="1187" height="506" viewBox="0 0 1187 506">
    <path fill="#FFF0E4" fill-rule="evenodd" d="M381.755-1104v25.638l-906.755 200V506h906.755v-.31c2.41-.058 4.743-.13 6.482-.206.402.002.8.018 1.203.018 98.795 0 185.828-57.468 236.92-144.727 12.83-21.42 24.024-46.042 32.914-74.279 1.72-3.037 2.967-5.318 3.246-6.054.67-2.555 2.11-7.516 4.824-14.054 9.192-18.373 28.538-47.692 65.2-68.89 38.347-24.828 87.854-40.645 142.325-42.913 19.179-2.161 40.022-3.53 62.753-3.895 20.733-.331 38.752-2.208 54.44-5.316.443-.08.881-.18 1.317-.26.333-.068.667-.133.996-.199 78.826-15.136 146.675-67.234 189.39-140.188 13.268-22.158 24.815-47.707 33.843-77.18 0 0 15.067-52.982 72.338-86.097 38.346-24.827 87.855-40.645 142.326-42.913 19.182-2.161 40.027-3.527 62.753-3.895 126.077-2.018 152.5-60.912 156.654-108.96h.321v-234.668-528.318L381.755-1104z"/>
</svg>
