<svg xmlns="http://www.w3.org/2000/svg" width="109" height="30" viewBox="0 0 109 30">
    <path fill="#142CD2" fill-rule="evenodd" d="M97.007 25.008c-2.671 0-4.504-1.566-4.504-4.617 0-3.714 2.893-6.902 6.387-6.902 2.327 0 4.673 1.309 4.673 4.805 0 3.202-2.573 6.714-6.556 6.714M10.47 1.847L6.015 19.084c-1.003 4.063 1.497 5.799 4.248 5.799 2.67 0 6-1.631 7.048-5.812l4.454-17.224h5.86s-4.009 15.41-4.492 17.237c-1.014 3.84 1.64 5.798 3.925 5.798 3.6 0 6.448-2.184 7.41-5.985l4.392-17.05h5.783l-4.638 17.858C38.26 26.66 31.999 30 26.415 30c-3.199 0-6.114-1.148-7.812-3.385C15.94 28.877 12.522 30 9.321 30c-5.908 0-10.815-3.94-8.9-11.4L4.728 1.848h5.742zm59.033 0l-5.309 20.7c-.433 1.62.457 2.58 2.013 2.58h6.733c-.577-.406-.448-1.683-.247-2.467l5.349-20.812h5.463l-5.31 20.7c-.432 1.618.474 2.579 1.934 2.579h8.222c-.807-1.071-1.239-2.938-1.239-4.685 0-6.325 5.222-11.448 12.233-11.448 6.038 0 9.655 4.276 9.655 9.101 0 5.5-3.372 9.626-9.03 10.98-1.479.352-3.655.542-5.51.542H50.98c-3.115 0-5.878-1.64-5.81-5.39.013-.703.106-1.445.325-2.304l3.178-12.42h5.458l-3.346 13.045c-.415 1.543.364 2.579 1.934 2.579h6.22c-.578-.406-.448-1.683-.247-2.467l5.35-20.812h5.46zM52.643 0c1.937 0 3.576 1.534 3.542 3.404-.034 1.833-1.727 3.404-3.665 3.404-1.898 0-3.458-1.571-3.427-3.404C49.13 1.534 50.744 0 52.643 0z"/>
</svg>
