<svg xmlns="http://www.w3.org/2000/svg" width="126" height="36" viewBox="0 0 126 36">
    <path fill="#231F20" fill-rule="evenodd" d="M112.137 30.01c-3.088 0-5.207-1.88-5.207-5.54 0-4.458 3.344-8.283 7.383-8.283 2.69 0 5.402 1.57 5.402 5.766 0 3.842-2.974 8.057-7.578 8.057m2.702-19.217c6.98 0 11.161 5.13 11.161 10.922 0 6.598-3.898 11.55-10.438 13.174-1.71.424-4.225.651-6.37.651h-50.26c-3.602 0-6.796-1.967-6.718-6.468.015-.843.123-1.734.376-2.764l3.674-14.905h6.31l-3.868 15.654c-.48 1.852.42 3.095 2.236 3.095h7.19c-.669-.486-.518-2.019-.286-2.96l6.183-24.975h6.314l-6.137 24.84c-.5 1.943.528 3.095 2.326 3.095h7.784c-.667-.486-.518-2.019-.286-2.96l6.184-24.975h6.314l-6.138 24.84c-.5 1.943.549 3.095 2.236 3.095h9.505c-.933-1.285-1.432-3.525-1.432-5.622 0-7.59 6.035-13.737 14.14-13.737zM39.843 22.676l5.078-20.46h6.684l-5.361 21.43C44.228 31.991 36.99 36 30.536 36c-3.699 0-7.069-1.377-9.032-4.063A16.413 16.413 0 0 1 10.774 36C3.947 36-1.727 31.273.488 22.321L5.465 2.216h6.638l-5.15 20.685c-1.16 4.875 1.73 6.959 4.91 6.959 3.087 0 6.937-1.958 8.148-6.974l5.148-20.67h6.774S27.3 20.71 26.741 22.901c-1.172 4.608 1.895 6.957 4.537 6.957 4.162 0 7.454-2.62 8.565-7.182zM60.71 8.169c-2.194 0-3.998-1.885-3.96-4.084C56.79 1.84 58.657 0 60.852 0c2.24 0 4.134 1.84 4.095 4.085-.04 2.2-1.996 4.084-4.237 4.084z"/>
</svg>
